<?xml version="1.0" standalone="no"?>
<!DOCTYPE svg PUBLIC "-//W3C//DTD SVG 20010904//EN"
 "http://www.w3.org/TR/2001/REC-SVG-20010904/DTD/svg10.dtd">
<svg version="1.0" xmlns="http://www.w3.org/2000/svg"
 width="500.000000pt" height="500.000000pt" viewBox="0 0 500.000000 500.000000"
 preserveAspectRatio="xMidYMid meet">

<g transform="translate(0.000000,500.000000) scale(0.100000,-0.100000)"
fill="#000000" stroke="none">
<path d="M2210 3965 c-8 -2 -49 -9 -90 -15 -438 -70 -833 -388 -1010 -814 -65
-155 -91 -277 -97 -456 -12 -390 111 -717 372 -989 197 -205 417 -328 702
-392 95 -22 119 -22 861 -26 l763 -4 -4 753 c-3 654 -6 764 -21 838 -26 135
-61 237 -120 355 l-55 110 0 -207 -1 -208 -55 0 c-49 0 -55 2 -55 21 l0 20
-26 -20 c-55 -43 -136 -36 -187 17 -41 43 -57 93 -57 180 0 89 24 149 74 186
38 29 134 30 165 2 l21 -19 0 100 0 100 -99 96 c-179 174 -373 280 -625 343
-83 21 -131 26 -271 29 -93 2 -177 2 -185 0z m380 -485 c35 -35 20 -83 -32
-95 -21 -5 -33 -1 -52 19 -15 14 -26 32 -26 41 0 23 37 55 65 55 14 0 34 -9
45 -20z m-575 -202 c38 -109 72 -198 75 -198 3 0 37 90 75 200 l70 200 78 0
77 0 0 -285 0 -285 -61 0 -62 0 6 203 c4 111 4 198 1 192 -2 -5 -35 -95 -73
-200 l-69 -190 -42 0 -43 0 -68 189 c-38 105 -71 195 -74 200 -2 6 -2 -80 2
-191 l6 -203 -62 0 -61 0 0 285 0 286 77 -3 78 -3 70 -197z m986 39 c47 -32
57 -75 58 -254 l1 -153 -54 0 -54 0 -4 156 c-3 140 -5 157 -22 170 -26 18 -66
18 -94 -2 -21 -15 -22 -21 -22 -170 l0 -154 -60 0 -60 0 0 210 0 210 55 0 c49
0 55 -2 55 -21 0 -20 0 -20 28 -1 37 26 50 30 98 31 27 1 52 -7 75 -22z m-401
-197 l0 -210 -55 0 -55 0 0 210 0 210 55 0 55 0 0 -210z m817 -301 c61 -29 76
-63 80 -179 2 -52 5 -125 6 -162 l3 -68 -53 0 c-36 0 -55 5 -60 15 -8 13 -14
12 -48 -5 -48 -25 -78 -25 -131 -1 -54 25 -74 55 -74 112 0 83 54 126 171 136
68 6 69 6 69 34 0 30 -31 59 -63 59 -10 0 -29 -11 -43 -25 -20 -20 -35 -25
-74 -25 -42 0 -50 3 -50 19 0 29 39 72 84 92 55 25 129 24 183 -2z m-47 -504
l0 -55 35 0 c34 0 35 -1 35 -40 0 -39 -1 -40 -35 -40 l-36 0 3 -122 3 -123 35
-5 c32 -5 35 -8 38 -43 3 -32 0 -38 -23 -47 -58 -22 -133 1 -154 46 -6 15 -11
80 -11 159 l0 135 -35 0 c-34 0 -35 1 -35 39 0 37 2 40 33 43 31 3 32 4 35 56
l3 52 55 0 54 0 0 -55z m47 -546 c61 -29 76 -63 80 -179 2 -52 5 -125 6 -162
l3 -68 -53 0 c-36 0 -55 5 -60 15 -8 13 -14 12 -48 -5 -48 -25 -78 -25 -131
-1 -54 25 -74 55 -74 112 0 83 54 126 171 136 68 6 69 6 69 34 0 30 -31 59
-63 59 -10 0 -29 -11 -43 -25 -20 -20 -35 -25 -74 -25 -42 0 -50 3 -50 19 0
29 39 72 84 92 55 25 129 24 183 -2z"/>
<path d="M3270 2580 c-40 -40 -17 -90 42 -90 42 0 68 27 68 71 l0 39 -45 0
c-32 0 -51 -6 -65 -20z"/>
<path d="M3270 1530 c-40 -40 -17 -90 42 -90 42 0 68 27 68 71 l0 39 -45 0
c-32 0 -51 -6 -65 -20z"/>
<path d="M3273 3226 c-24 -21 -28 -32 -31 -92 -3 -79 10 -112 52 -133 25 -12
33 -11 62 3 l34 16 0 99 c0 92 -2 101 -22 115 -32 22 -63 20 -95 -8z"/>
</g>
</svg>
